<svg xmlns="http://www.w3.org/2000/svg" viewBox="0 0 620 400" width="620" height="400" fill="none" role="img" aria-label="小影在电脑前干活，说：记得下载最新版客户端找我干活哦，不是玩！"><defs><radialGradient id="rgb" cx="0.35" cy="0.25" r="0.95"><stop offset="0" stop-color="#93F2CA"/><stop offset="0.5" stop-color="#43D398"/><stop offset="1" stop-color="#1FA475"/></radialGradient><radialGradient id="rgl" cx="0.35" cy="0.3" r="1"><stop offset="0" stop-color="#52D9A2"/><stop offset="1" stop-color="#1C9A6C"/></radialGradient><radialGradient id="rgf" cx="0.4" cy="0.3" r="1"><stop offset="0" stop-color="#2BB782"/><stop offset="1" stop-color="#14805A"/></radialGradient><filter id="soft" x="-60%" y="-60%" width="220%" height="220%"><feGaussianBlur stdDeviation="5"/></filter><radialGradient id="glow" cx="0.5" cy="0.5" r="0.5"><stop offset="0" stop-color="#37C98B" stop-opacity="0.20"/><stop offset="1" stop-color="#37C98B" stop-opacity="0"/></radialGradient></defs><style>
.mascot{animation:bob 3.2s ease-in-out infinite}
.armL{animation:tapL .58s ease-in-out infinite;transform-origin:348px 288px}
.armR{animation:tapR .58s ease-in-out .29s infinite;transform-origin:442px 286px}
.antenna{animation:sway 2.6s ease-in-out infinite;transform-origin:122px 46px}
.eyes{animation:blink 4.4s ease-in-out infinite;transform-origin:120px 118px}
.bubble{animation:float 3.6s ease-in-out infinite}
.spark{animation:twinkle 1.8s ease-in-out infinite}
.task .t1{animation:lite 2.4s ease-in-out infinite}
.task .t2{animation:lite 2.4s ease-in-out .35s infinite}
.task .t3{animation:lite 2.4s ease-in-out .7s infinite}
.mote{animation:drift 6s ease-in-out infinite}
.m2{animation-duration:7.5s;animation-delay:.6s}
.m3{animation-duration:5.4s;animation-delay:1.2s}
.m4{animation-duration:8.2s;animation-delay:.3s}
.m5{animation-duration:6.8s;animation-delay:1.8s}
@keyframes bob{0%,100%{transform:translate(300px,128px) scale(.78)}
50%{transform:translate(300px,123px) scale(.782)}}
@keyframes tapL{0%,100%{transform:translateY(0)}50%{transform:translateY(4px)}}
@keyframes tapR{0%,100%{transform:translateY(0)}50%{transform:translateY(4px)}}
@keyframes sway{0%,100%{transform:rotate(-7deg)}50%{transform:rotate(7deg)}}
@keyframes blink{0%,92%,100%{transform:scaleY(1)}95%{transform:scaleY(.12)}}
@keyframes float{0%,100%{transform:translate(330px,8px)}50%{transform:translate(330px,0px)}}
@keyframes twinkle{0%,100%{opacity:.35;r:3}50%{opacity:1;r:5}}
@keyframes lite{0%,100%{opacity:.28}45%{opacity:1}}
@keyframes drift{0%,100%{transform:translateY(0)}50%{transform:translateY(-14px)}}
@media(prefers-reduced-motion:reduce){.mascot,.armL,.armR,.antenna,.eyes,.bubble,
.spark,.task rect,.mote{animation:none}}
</style><ellipse cx="310" cy="250" rx="290" ry="175" fill="url(#glow)"/><circle class="mote m1" cx="60" cy="46" r="4" fill="#37C98B" opacity="0.55"/><circle class="mote m2" cx="598" cy="206" r="5" fill="#3B82F6" opacity="0.4"/><circle class="mote m3" cx="26" cy="232" r="3.5" fill="#62E0B1" opacity="0.5"/><circle class="mote m4" cx="300" cy="26" r="3" fill="#37C98B" opacity="0.35"/><circle class="mote m5" cx="566" cy="366" r="4" fill="#62E0B1" opacity="0.3"/><g transform="translate(24 34) rotate(-4)"><rect x="0" y="0" width="360" height="232" rx="16" fill="#16232B" stroke="#2C3F4B" stroke-width="3"/><rect x="14" y="14" width="332" height="204" rx="9" fill="#0B1319"/><rect x="28" y="30" width="126" height="12" rx="6" fill="#37C98B" opacity="0.85"/><rect x="28" y="52" width="168" height="9" rx="4.5" fill="#4A5C68"/><rect x="28" y="70" width="140" height="9" rx="4.5" fill="#3D4E59"/><rect x="28" y="98" width="150" height="52" rx="10" fill="#16303A" stroke="#2A5C56" stroke-width="2"/><rect x="40" y="112" width="80" height="8" rx="4" fill="#37C98B" opacity="0.75"/><rect x="40" y="128" width="116" height="7" rx="3.5" fill="#3F5560"/><g class="task"><rect class="t1" x="202" y="98" width="118" height="13" rx="6.5" fill="#37C98B"/><rect class="t2" x="202" y="120" width="96" height="13" rx="6.5" fill="#37C98B"/><rect class="t3" x="202" y="142" width="110" height="13" rx="6.5" fill="#37C98B"/></g><rect x="28" y="166" width="292" height="34" rx="10" fill="#132029" stroke="#263742" stroke-width="2"/><rect x="42" y="179" width="120" height="8" rx="4" fill="#3B4C57"/><circle cx="300" cy="183" r="11" fill="#37C98B" opacity="0.9"/><path d="M295 183l4 4 7-8" fill="none" stroke="#0B1319" stroke-width="2.6" stroke-linecap="round" stroke-linejoin="round"/></g><g class="mascot" transform="translate(300 128) scale(0.78)"><path d="M120 44C158 44 186 58 188 96C190 128 190 158 184 176C176 200 152 206 120 206C88 206 64 200 56 176C50 158 50 128 52 96C54 58 82 44 120 44Z" transform="translate(-22 -20)" fill="none" stroke="#3B82F6" stroke-width="8" opacity="0.55" stroke-linecap="round" stroke-dasharray="16 18"/><path d="M120 44C158 44 186 58 188 96C190 128 190 158 184 176C176 200 152 206 120 206C88 206 64 200 56 176C50 158 50 128 52 96C54 58 82 44 120 44Z" fill="url(#rgb)"/><ellipse cx="94" cy="80" rx="38" ry="20" fill="#FFFFFF" opacity="0.5" filter="url(#soft)" transform="rotate(-16 94 80)"/><circle cx="152" cy="66" r="6" fill="#FFFFFF" opacity="0.7"/><g class="antenna"><path d="M122 46Q120 30 130 22" fill="none" stroke="#1FA475" stroke-width="6" stroke-linecap="round"/><circle cx="133" cy="19" r="8" fill="#3B82F6"/><circle cx="130.5" cy="16.5" r="2.5" fill="#FFFFFF"/></g><g class="eyes"><circle cx="92" cy="118" r="13" fill="#1D2A35"/><circle cx="87" cy="113" r="4.5" fill="#FFFFFF"/><circle cx="96" cy="122" r="2" fill="#FFFFFF" opacity="0.8"/><circle cx="148" cy="118" r="13" fill="#1D2A35"/><circle cx="143" cy="113" r="4.5" fill="#FFFFFF"/><circle cx="152" cy="122" r="2" fill="#FFFFFF" opacity="0.8"/></g><ellipse cx="72" cy="142" rx="10" ry="6" fill="#FFE3B8" opacity="0.55"/><ellipse cx="168" cy="142" rx="10" ry="6" fill="#FFE3B8" opacity="0.55"/><path d="M100 146Q120 164 140 146" fill="none" stroke="#14202B" stroke-width="9" stroke-linecap="round"/></g><path d="M78 300 L500 300 L556 356 L18 356 Z" fill="#1B2A33" stroke="#2C3F4B" stroke-width="3" stroke-linejoin="round"/><rect x="104" y="312" width="32" height="7" rx="3.5" fill="#2C3F4B"/><rect x="150" y="315" width="32" height="7" rx="3.5" fill="#2C3F4B"/><rect x="196" y="312" width="32" height="7" rx="3.5" fill="#2C3F4B"/><rect x="242" y="315" width="32" height="7" rx="3.5" fill="#2C3F4B"/><rect x="288" y="312" width="32" height="7" rx="3.5" fill="#2C3F4B"/><rect x="334" y="315" width="32" height="7" rx="3.5" fill="#2C3F4B"/><rect x="380" y="312" width="32" height="7" rx="3.5" fill="#2C3F4B"/><rect x="426" y="315" width="32" height="7" rx="3.5" fill="#2C3F4B"/><rect x="472" y="312" width="32" height="7" rx="3.5" fill="#2C3F4B"/><path d="M212 334 h150 a7 7 0 0 1 7 7 h-164 a7 7 0 0 1 7 -7 Z" fill="#263742"/><g class="armL"><ellipse cx="348" cy="303" rx="14" ry="22" transform="rotate(30 348 303)" fill="url(#rgl)"/></g><g class="armR"><ellipse cx="442" cy="301" rx="14" ry="22" transform="rotate(-26 442 301)" fill="url(#rgl)"/></g><g class="bubble" transform="translate(330 8)"><rect x="0" y="0" width="252" height="86" rx="20" fill="#0E1B22" stroke="#37C98B" stroke-width="2.5"/><path d="M52 84 L44 112 L82 86 Z" fill="#0E1B22" stroke="#37C98B" stroke-width="2.5" stroke-linejoin="round"/><path d="M50 85 L80 85" stroke="#0E1B22" stroke-width="4"/><text x="24" y="35" fill="#D9EFE5" font-size="17" font-weight="600" font-family="PingFang SC, Hiragino Sans GB, Microsoft YaHei, sans-serif">记得下载最新版客户端</text><text x="24" y="62" fill="#7DF0BE" font-size="17" font-weight="700" font-family="PingFang SC, Hiragino Sans GB, Microsoft YaHei, sans-serif">找我干活哦，不是玩！</text><circle class="spark" cx="228" cy="20" r="4" fill="#3B82F6"/></g></svg>
