<svg xmlns="http://www.w3.org/2000/svg" viewBox="0 0 200 120">
  <defs>
    <linearGradient id="dgBg" x1="0" y1="0" x2="1" y2="1"><stop offset="0" stop-color="#F0FDF4"/><stop offset="1" stop-color="#DCFCE7"/></linearGradient>
    <linearGradient id="dgAc" x1="0" y1="0" x2="1" y2="1"><stop offset="0" stop-color="#4ADE80"/><stop offset="1" stop-color="#16A34A"/></linearGradient>
  </defs>
  <rect width="200" height="120" rx="12" fill="url(#dgBg)"/>
  <circle cx="176" cy="20" r="4" fill="#86EFAC" opacity="0.6"/>
  <circle cx="26" cy="24" r="3" fill="#4ADE80" opacity="0.5"/>
  <ellipse cx="96" cy="106" rx="52" ry="6" fill="#14532D" opacity="0.08"/>
  <rect x="46" y="22" width="60" height="80" rx="8" fill="#F8FAFC" stroke="#E2E8F0" transform="rotate(-4 46 22)"/>
  <rect x="58" y="16" width="66" height="88" rx="9" fill="#FFFFFF" stroke="#DCFCE7"/>
  <rect x="68" y="28" width="34" height="7" rx="3.5" fill="url(#dgAc)"/>
  <rect x="68" y="43" width="46" height="5" rx="2.5" fill="#BBF7D0"/>
  <rect x="68" y="54" width="40" height="5" rx="2.5" fill="#E2E8F0"/>
  <rect x="68" y="65" width="46" height="5" rx="2.5" fill="#E2E8F0"/>
  <rect x="68" y="76" width="30" height="5" rx="2.5" fill="#BBF7D0"/>
  <rect x="68" y="87" width="40" height="5" rx="2.5" fill="#E2E8F0"/>
  <g transform="rotate(38 152 56)">
    <rect x="145" y="24" width="15" height="52" rx="4" fill="url(#dgAc)"/>
    <rect x="145" y="24" width="15" height="10" rx="4" fill="#FDE68A"/>
    <path d="M145 76 L152.5 92 L160 76 Z" fill="#FBBF24"/>
    <path d="M149.5 85 L152.5 92 L155.5 85 Z" fill="#334155"/>
  </g>
</svg>
