<svg xmlns="http://www.w3.org/2000/svg" viewBox="0 0 1420 240" width="1420" height="240" fill="none" role="img" aria-label="iML Worker"><defs><linearGradient id="gm" x1="0" y1="0" x2="240" y2="240" gradientUnits="userSpaceOnUse"><stop offset="0" stop-color="#5BC8F5"/><stop offset="0.58" stop-color="#1FA5E8"/><stop offset="1" stop-color="#1568A8"/></linearGradient><linearGradient id="gg" x1="0" y1="0" x2="240" y2="240" gradientUnits="userSpaceOnUse"><stop offset="0" stop-color="#202A34"/><stop offset="1" stop-color="#0F1720"/></linearGradient><radialGradient id="rgb" cx="0.35" cy="0.25" r="0.95"><stop offset="0" stop-color="#A9DEFB"/><stop offset="0.5" stop-color="#38B4EE"/><stop offset="1" stop-color="#1673B8"/></radialGradient><radialGradient id="rgl" cx="0.35" cy="0.3" r="1"><stop offset="0" stop-color="#4FBDF2"/><stop offset="1" stop-color="#1567AC"/></radialGradient><radialGradient id="rgf" cx="0.4" cy="0.3" r="1"><stop offset="0" stop-color="#2A93D6"/><stop offset="1" stop-color="#12558C"/></radialGradient><filter id="soft" x="-60%" y="-60%" width="220%" height="220%"><feGaussianBlur stdDeviation="5"/></filter></defs><rect x="30" y="30" width="140" height="140" rx="34" fill="none" stroke="#E8352B" stroke-width="12"/><rect x="66" y="66" width="144" height="144" rx="34" fill="url(#gm)"/><circle cx="114" cy="132" r="13" fill="#FFFFFF"/><circle cx="162" cy="132" r="13" fill="#FFFFFF"/><path d="M114 166Q138 184 162 166" fill="none" stroke="#FFFFFF" stroke-width="12" stroke-linecap="round"/><g transform="translate(300 39) scale(1.35)"><g transform="translate(2 10)"><circle cx="10" cy="10" r="10.5" fill="#E8352B"/><g fill="none" stroke="#0F1720" stroke-width="20" stroke-linecap="round" stroke-linejoin="round"><path d="M10 38V100"/><path d="M46 100V6L86 68L126 6V100"/><path d="M162 6V100H218"/></g><g fill="none" stroke="#1568A8" stroke-width="20" stroke-linecap="round" stroke-linejoin="round"><path d="M282 6L305 100L328 38L351 100L374 6"/><circle cx="441" cy="68" r="31"/><path d="M508 36V100"/><path d="M508 68C508 44 520 36 540 38"/><path d="M578 2V100"/><path d="M612 38L580 66"/><path d="M590 58L618 100"/><path d="M654.6 62H715.4"/><path d="M715.4 62A31 31 0 1 0 703 93"/><path d="M752 36V100"/><path d="M752 68C752 44 764 36 784 38"/></g></g></g></svg>
